# xmcd
#
# Track frame offsets:
#	182
#	15072
#	31272
#	50632
#	65750
#	81422
#	96997
#	113527
#	129172
#	150517
#	164552
#	181177
#	193800
#	209615
#	225077
#
# Disc length: 3229 seconds
#
# Revision: 1
# Processed by: cddbd v1.5.1PL0 Copyright (c) Steve Scherf et al.
# Submitted via: audiograbber 1.83.01
#
DISCID=ba0c9b0f
DTITLE=Music Maestro - Mm6029
DYEAR=1900
DGENRE=Karaoke
TTITLE0=Strait, George - Easy Come, Easy Go
TTITLE1=Gill, Vince - Cone More Last Chance
TTITLE2=Tillis, Pam - Do You Know Where Your Man Is
TTITLE3=Parnell, Leroy - Tender Moment
TTITLE4=Alabama - Hometown Honeymoon
TTITLE5=Bogguss, Suzy - Just Like the Weather
TTITLE6=Keith, Toby - Should've Been a Cowboy
TTITLE7=Gibson Miller Band - Texas Tattoo
TTITLE8=Mcentire, Reba - Davis, L. - Does He Love You
TTITLE9=Lawrence, Tracy - Can't Break it to my Heart
TTITLE10=Alabama - Reckless
TTITLE11=McBride, Martina - My Baby Loves Me
TTITLE12=Confederate Railroad - Trashy Women
TTITLE13=Brooks, Garth - Ain't Goin' Down ('til the sun comes up)
TTITLE14=Judd, Wynonna - Only Love
EXTD=Top Country Hits of the 90's Vol VI
EXTT0=
EXTT1=
EXTT2=
EXTT3=
EXTT4=
EXTT5=
EXTT6=
EXTT7=
EXTT8=
EXTT9=
EXTT10=
EXTT11=
EXTT12=
EXTT13=
EXTT14=
PLAYORDER=
